<?xml version="1.0" encoding="UTF-8"?>
<svg id="Layer_1" data-name="Layer 1" xmlns="http://www.w3.org/2000/svg" xmlns:xlink="http://www.w3.org/1999/xlink" version="1.1" viewBox="0 0 359.7 337.5">
  <defs>
    <style>
      .cls-1 {
        fill: url(#linear-gradient);
      }

      .cls-1, .cls-2, .cls-3, .cls-4, .cls-5 {
        stroke-width: 0px;
      }

      .cls-6, .cls-2 {
        fill: #000;
      }

      .cls-6, .cls-7 {
        font-family: AlverataMd, Alverata;
        font-size: 58.3px;
      }

      .cls-3 {
        fill: url(#linear-gradient-2);
      }

      .cls-4 {
        fill: url(#linear-gradient-3);
      }

      .cls-7, .cls-5 {
        fill: #fff;
      }
    </style>
    <linearGradient id="linear-gradient" x1="42" y1="112.7" x2="317.7" y2="112.7" gradientUnits="userSpaceOnUse">
      <stop offset="0" stop-color="#000"/>
      <stop offset=".2" stop-color="#010002"/>
      <stop offset=".3" stop-color="#06030c"/>
      <stop offset=".4" stop-color="#0d061c"/>
      <stop offset=".5" stop-color="#190c32"/>
      <stop offset=".6" stop-color="#27134f"/>
      <stop offset=".7" stop-color="#381c73"/>
      <stop offset=".8" stop-color="#4d269d"/>
      <stop offset=".9" stop-color="#6532cd"/>
      <stop offset=".9" stop-color="#7e3fff"/>
    </linearGradient>
    <linearGradient id="linear-gradient-2" x1="-811.8" y1="52.6" x2="-683.3" y2="52.6" xlink:href="#linear-gradient"/>
    <linearGradient id="linear-gradient-3" x1="-295.6" x2="-20" xlink:href="#linear-gradient"/>
  </defs>
  <g>
    <text class="cls-7" transform="translate(-1640.2 -38.2)"><tspan x="0" y="0">RISING TIDES</tspan></text>
    <path class="cls-5" d="M-1434.1-184.4c3.8-33.2,61.7-25.2,111.6-35.3,0,0-43.7-34.5-82.4-88.2-54.8-76.1-120-42.2-120-42.2,0,0,41.5,17.1,38.3,44.6-3.8,33.2-61.7,25.2-111.6,35.3,0,0,43.7,34.5,82.4,88.2,54.8,76.1,120,42.2,120,42.2,0,0-41.5-17.1-38.3-44.6Z"/>
  </g>
  <g>
    <path class="cls-5" d="M-2323.5-293.2s-20.4-16.1-38.4-41.1c-25.6-35.5-56-19.7-56-19.7,0,0,19.4,8,17.9,20.8-1.8,15.5-28.8,11.8-52.1,16.5,0,0,20.4,16.1,38.4,41.1,25.6,35.5,56,19.7,56,19.7,0,0-19.4-8-17.9-20.8,1.8-15.5,28.8-11.8,52-16.5Z"/>
    <path class="cls-5" d="M-2838.2-272.1l-6.7-11c-7.3-12-11.6-18.4-23.5-20,24.6.3,30.7-15.1,30.7-26.4,0-23.9-21.1-25.1-37.3-25.1s-12,.3-16.1.3-9.8-.3-9.8-.3l1.3,2.4c2.9,5.6,3.5,6.1,3.5,46.8s-.8,43-3.5,48.2l-1.3,2.4s3.5-.3,11.6-.3,11.5.3,11.5.3l-1.3-2.4c-2.9-5.6-3.5-7.8-3.5-43.3,0,0,1.1-.1,2.4-.1,7.5,0,9.1,2.8,17.7,16.2l10.1,15.5c6.6,10.2,10.1,14.5,19.7,14.5s8.7-1.1,8.7-1.1c-5.7-2.5-9.4-8.4-14.2-16.5ZM-2874.4-308.8c-5.3,0-8.1-.3-8.1-.3v-36.9s3.2-.3,7-.3c12.7,0,22.8,1.8,22.8,18.3s-6,17.5-13.3,18.6c-2.4.3-6.7.6-8.4.6Z"/>
    <path class="cls-5" d="M-2792.2-354.6s-3.4.3-11.7.3-11.6-.3-11.6-.3l1.3,2.4c2.9,5.6,3.5,6.1,3.5,46.8s-.7,42.9-3.5,48.2l-1.3,2.4s3.5-.3,11.7-.3,11.6.3,11.6.3l-1.3-2.4c-2.9-5.6-3.5-6.1-3.5-46.8s.7-42.9,3.5-48.2l1.3-2.4Z"/>
    <path class="cls-5" d="M-2736.4-309.1l-9.9-6.4c-7.8-5.2-13.4-8.7-13.4-17,0-13,12.3-13.7,17.7-13.7,11,0,16.8,5.2,22.6,13.7,0,0-.3-4-.3-9.9s.3-8.9.3-8.9c0,0-8.1-4-22.3-4-22.8,0-31.4,11.5-31.4,24.6s11,21.9,20.5,28.1l12.6,8.1c6,4,10.8,8,10.8,16.6,0,13.4-11.9,14.8-20.2,14.8-12.4,0-18.3-5.9-24.2-14.2,0,0,.3,4.7.3,10.6s-.3,8.5-.3,8.5c0,0,8,4.3,24.3,4.3s33.7-6.8,33.7-26.1-9.8-21.9-20.7-28.9Z"/>
    <path class="cls-5" d="M-2674.7-354.6s-3.4.3-11.7.3-11.6-.3-11.6-.3l1.3,2.4c2.9,5.6,3.5,6.1,3.5,46.8s-.7,42.9-3.5,48.2l-1.3,2.4s3.5-.3,11.7-.3,11.6.3,11.6.3l-1.3-2.4c-2.9-5.6-3.5-6.1-3.5-46.8s.7-42.9,3.5-48.2l1.3-2.4Z"/>
    <path class="cls-5" d="M-2590.6-354.6l1.3,2.4c2.9,5.6,3.5,6.1,3.5,46.8v38.8s-.8-4-4-9.9l-41.1-78.1s-3.5.3-10.6.3-11.9-.3-11.9-.3l1.3,2.4c2.9,5.6,3.5,6.1,3.5,46.8s-1,43.1-3.6,48.2l-1.3,2.4s2.9-.3,9.9-.3,10.3.3,10.3.3l-1.3-2.4c-2.9-5.6-3.5-6.1-3.5-46.8v-39c.1,1,1.5,5.6,3.6,9.6l41.3,78.6s3.4-.4,9.4-.4,8.5.4,8.5.4v-49.3c.1-41.9.8-43.2,3.5-48.2l1.3-2.4s-3.1.3-10.1.3-10.1-.3-10.1-.3Z"/>
    <path class="cls-5" d="M-2494.1-301.3l1.4,2.4c2.8,4.9,3.5,9.6,3.5,34.6,0,0-4.2,1-12.3,1-28.9,0-36.3-17.9-36.3-40.8,0-37.1,22.6-42.2,37.1-42.2s19.4,4.9,25.7,13.7c0,0-.4-4-.4-9.8s.4-9.1.4-9.1c0,0-7.4-4-25.7-4-33,0-52.2,18.7-52.2,51.9s5.9,49.4,51.2,49.4,26-4,26-4v-.8c0-32.8.8-35.1,3.5-39.9l1.3-2.4s-3.4.3-11.7.3-11.5-.3-11.5-.3Z"/>
    <path class="cls-5" d="M-2248.5-354.5h-72.2s.1,2.2.1,7.3-.4,8.4-.4,8.5c.1-.3,1.4-1.5,5-3.8,3.4-2,8.8-3.4,15.4-3.4h9.1v40.4c0,41.9-.7,42.9-3.5,48.2l-1.3,2.4s3.5-.3,11.7-.3,11.6.3,11.6.3l-1.3-2.4c-2.9-5.6-3.5-6.1-3.5-46.8v-41.8h9.1c6.6,0,12,1.4,15.4,3.4,3.9,2.4,4.9,3.6,5,3.8,0-.3-.4-2.9-.4-8.5s.1-7.3.1-7.3Z"/>
    <path class="cls-5" d="M-2212.9-354.6s-3.4.3-11.7.3-11.6-.3-11.6-.3l1.3,2.4c2.9,5.6,3.5,6.1,3.5,46.8s-.7,42.9-3.5,48.2l-1.3,2.4s3.5-.3,11.7-.3,11.6.3,11.6.3l-1.3-2.4c-2.9-5.6-3.5-6.1-3.5-46.8s.7-42.9,3.5-48.2l1.3-2.4Z"/>
    <path class="cls-5" d="M-2161.3-354.7c-6,0-13.4.4-19,.4s-11.5-.3-11.5-.3l1.3,2.4c2.9,5.6,3.5,6.1,3.5,46.8s-.7,43-3.5,48.2l-1.3,2.4s3.8-.3,11.5-.3,10.9.4,16.9.4c17.6,0,54.7-1,54.7-52.2s-38.4-47.8-52.6-47.8ZM-2163.6-263.6c-4.5,0-9.2-.4-9.2-.4v-81.6s4.2-.4,9.6-.4c19.5,0,39.4,4.7,39.4,40.6s-21.4,41.8-39.8,41.8Z"/>
    <path class="cls-5" d="M-2054.4-264h-17v-36.4h15.1c6.6,0,12,.7,15.4,2.7,3.9,2.4,4.9,3.6,5,3.8,0-.3-.4-4.3-.4-10.8s.4-10.8.4-10.9c-.3.3-1.4,1.5-5,3.6-3.4,2-8.8,2.7-15.4,2.7h-15.1v-36.2h18.4c6.6,0,12,1.1,15.4,3.1,3.9,2.4,4.9,3.6,5,3.8,0-.3-.4-2.9-.4-8.5s.1-7.3.1-7.3h-46.6c-7.5,0-10.6-.1-10.6-.1l1.3,2.4c2.9,5.6,3.5,6.1,3.5,46.8s-.7,42.9-3.5,48.2l-1.3,2.4s3.2-.1,10.8-.1h47.9l.3-4.2c.8-11.3,1.5-16.3,1.5-16.3-5.2,7.5-7.4,11.6-24.7,11.6Z"/>
    <path class="cls-5" d="M-1976.5-309.1l-9.9-6.4c-7.8-5.2-13.4-8.7-13.4-17,0-13,12.3-13.7,17.7-13.7,11,0,16.8,5.2,22.6,13.7,0,0-.3-4-.3-9.9s.3-8.9.3-8.9c0,0-8.1-4-22.3-4-22.8,0-31.4,11.5-31.4,24.6s11,21.9,20.5,28.1l12.6,8.1c6,4,10.8,8,10.8,16.6,0,13.4-11.9,14.8-20.2,14.8-12.4,0-18.3-5.9-24.2-14.2,0,0,.3,4.7.3,10.6s-.3,8.5-.3,8.5c0,0,8,4.3,24.3,4.3s33.7-6.8,33.7-26.1-9.8-21.9-20.7-28.9Z"/>
  </g>
  <g>
    <text class="cls-6" transform="translate(-1640.2 319.3)"><tspan x="0" y="0">RISING TIDES</tspan></text>
    <path class="cls-2" d="M-1434.1,173.2c3.8-33.2,61.7-25.2,111.6-35.3,0,0-43.7-34.5-82.4-88.2-54.8-76.1-120-42.2-120-42.2,0,0,41.5,17.1,38.3,44.6-3.8,33.2-61.7,25.2-111.6,35.3,0,0,43.7,34.5,82.4,88.2,54.8,76.1,120,42.2,120,42.2,0,0-41.5-17.1-38.3-44.6Z"/>
  </g>
  <g>
    <path class="cls-2" d="M-2323.5,64.3s-20.4-16.1-38.4-41.1c-25.6-35.5-56-19.7-56-19.7,0,0,19.4,8,17.9,20.8-1.8,15.5-28.8,11.8-52.1,16.5,0,0,20.4,16.1,38.4,41.1,25.6,35.5,56,19.7,56,19.7,0,0-19.4-8-17.9-20.8,1.8-15.5,28.8-11.8,52-16.5Z"/>
    <path class="cls-2" d="M-2838.2,85.4l-6.7-11c-7.3-12-11.6-18.4-23.5-20,24.6.3,30.7-15.1,30.7-26.4,0-23.9-21.1-25.1-37.3-25.1s-12,.3-16.1.3-9.8-.3-9.8-.3l1.3,2.4c2.9,5.6,3.5,6.1,3.5,46.8s-.8,43-3.5,48.2l-1.3,2.4s3.5-.3,11.6-.3,11.5.3,11.5.3l-1.3-2.4c-2.9-5.6-3.5-7.8-3.5-43.3,0,0,1.1-.1,2.4-.1,7.5,0,9.1,2.8,17.7,16.2l10.1,15.5c6.6,10.2,10.1,14.5,19.7,14.5s8.7-1.1,8.7-1.1c-5.7-2.5-9.4-8.4-14.2-16.5ZM-2874.4,48.7c-5.3,0-8.1-.3-8.1-.3V11.6s3.2-.3,7-.3c12.7,0,22.8,1.8,22.8,18.3s-6,17.5-13.3,18.6c-2.4.3-6.7.6-8.4.6Z"/>
    <path class="cls-2" d="M-2792.2,2.9s-3.4.3-11.7.3-11.6-.3-11.6-.3l1.3,2.4c2.9,5.6,3.5,6.1,3.5,46.8s-.7,42.9-3.5,48.2l-1.3,2.4s3.5-.3,11.7-.3,11.6.3,11.6.3l-1.3-2.4c-2.9-5.6-3.5-6.1-3.5-46.8s.7-42.9,3.5-48.2l1.3-2.4Z"/>
    <path class="cls-2" d="M-2736.4,48.4l-9.9-6.4c-7.8-5.2-13.4-8.7-13.4-17,0-13,12.3-13.7,17.7-13.7,11,0,16.8,5.2,22.6,13.7,0,0-.3-4-.3-9.9s.3-8.9.3-8.9c0,0-8.1-4-22.3-4-22.8,0-31.4,11.5-31.4,24.6s11,21.9,20.5,28.1l12.6,8.1c6,4,10.8,8,10.8,16.6,0,13.4-11.9,14.8-20.2,14.8-12.4,0-18.3-5.9-24.2-14.2,0,0,.3,4.7.3,10.6s-.3,8.5-.3,8.5c0,0,8,4.3,24.3,4.3s33.7-6.8,33.7-26.1-9.8-21.9-20.7-28.9Z"/>
    <path class="cls-2" d="M-2674.7,2.9s-3.4.3-11.7.3-11.6-.3-11.6-.3l1.3,2.4c2.9,5.6,3.5,6.1,3.5,46.8s-.7,42.9-3.5,48.2l-1.3,2.4s3.5-.3,11.7-.3,11.6.3,11.6.3l-1.3-2.4c-2.9-5.6-3.5-6.1-3.5-46.8s.7-42.9,3.5-48.2l1.3-2.4Z"/>
    <path class="cls-2" d="M-2590.6,2.9l1.3,2.4c2.9,5.6,3.5,6.1,3.5,46.8v38.8s-.8-4-4-9.9l-41.1-78.1s-3.5.3-10.6.3-11.9-.3-11.9-.3l1.3,2.4c2.9,5.6,3.5,6.1,3.5,46.8s-1,43.1-3.6,48.2l-1.3,2.4s2.9-.3,9.9-.3,10.3.3,10.3.3l-1.3-2.4c-2.9-5.6-3.5-6.1-3.5-46.8V14.5c.1,1,1.5,5.6,3.6,9.6l41.3,78.6s3.4-.4,9.4-.4,8.5.4,8.5.4v-49.3c.1-41.9.8-43.2,3.5-48.2l1.3-2.4s-3.1.3-10.1.3-10.1-.3-10.1-.3Z"/>
    <path class="cls-2" d="M-2494.1,56.3l1.4,2.4c2.8,4.9,3.5,9.6,3.5,34.6,0,0-4.2,1-12.3,1-28.9,0-36.3-17.9-36.3-40.8,0-37.1,22.6-42.2,37.1-42.2s19.4,4.9,25.7,13.7c0,0-.4-4-.4-9.8s.4-9.1.4-9.1c0,0-7.4-4-25.7-4-33,0-52.2,18.7-52.2,51.9s5.9,49.4,51.2,49.4,26-4,26-4v-.8c0-32.8.8-35.1,3.5-39.9l1.3-2.4s-3.4.3-11.7.3-11.5-.3-11.5-.3Z"/>
    <path class="cls-2" d="M-2248.5,3.1h-72.2s.1,2.2.1,7.3-.4,8.4-.4,8.5c.1-.3,1.4-1.5,5-3.8,3.4-2,8.8-3.4,15.4-3.4h9.1v40.4c0,41.9-.7,42.9-3.5,48.2l-1.3,2.4s3.5-.3,11.7-.3,11.6.3,11.6.3l-1.3-2.4c-2.9-5.6-3.5-6.1-3.5-46.8V11.7h9.1c6.6,0,12,1.4,15.4,3.4,3.9,2.4,4.9,3.6,5,3.8,0-.3-.4-2.9-.4-8.5s.1-7.3.1-7.3Z"/>
    <path class="cls-2" d="M-2212.9,2.9s-3.4.3-11.7.3-11.6-.3-11.6-.3l1.3,2.4c2.9,5.6,3.5,6.1,3.5,46.8s-.7,42.9-3.5,48.2l-1.3,2.4s3.5-.3,11.7-.3,11.6.3,11.6.3l-1.3-2.4c-2.9-5.6-3.5-6.1-3.5-46.8s.7-42.9,3.5-48.2l1.3-2.4Z"/>
    <path class="cls-2" d="M-2161.3,2.8c-6,0-13.4.4-19,.4s-11.5-.3-11.5-.3l1.3,2.4c2.9,5.6,3.5,6.1,3.5,46.8s-.7,43-3.5,48.2l-1.3,2.4s3.8-.3,11.5-.3,10.9.4,16.9.4c17.6,0,54.7-1,54.7-52.2s-38.4-47.8-52.6-47.8ZM-2163.6,94c-4.5,0-9.2-.4-9.2-.4V12s4.2-.4,9.6-.4c19.5,0,39.4,4.7,39.4,40.6s-21.4,41.8-39.8,41.8Z"/>
    <path class="cls-2" d="M-2054.4,93.5h-17v-36.4h15.1c6.6,0,12,.7,15.4,2.7,3.9,2.4,4.9,3.6,5,3.8,0-.3-.4-4.3-.4-10.8s.4-10.8.4-10.9c-.3.3-1.4,1.5-5,3.6-3.4,2-8.8,2.7-15.4,2.7h-15.1V12h18.4c6.6,0,12,1.1,15.4,3.1,3.9,2.4,4.9,3.6,5,3.8,0-.3-.4-2.9-.4-8.5s.1-7.3.1-7.3h-46.6c-7.5,0-10.6-.1-10.6-.1l1.3,2.4c2.9,5.6,3.5,6.1,3.5,46.8s-.7,42.9-3.5,48.2l-1.3,2.4s3.2-.1,10.8-.1h47.9l.3-4.2c.8-11.3,1.5-16.3,1.5-16.3-5.2,7.5-7.4,11.6-24.7,11.6Z"/>
    <path class="cls-2" d="M-1976.5,48.4l-9.9-6.4c-7.8-5.2-13.4-8.7-13.4-17,0-13,12.3-13.7,17.7-13.7,11,0,16.8,5.2,22.6,13.7,0,0-.3-4-.3-9.9s.3-8.9.3-8.9c0,0-8.1-4-22.3-4-22.8,0-31.4,11.5-31.4,24.6s11,21.9,20.5,28.1l12.6,8.1c6,4,10.8,8,10.8,16.6,0,13.4-11.9,14.8-20.2,14.8-12.4,0-18.3-5.9-24.2-14.2,0,0,.3,4.7.3,10.6s-.3,8.5-.3,8.5c0,0,8,4.3,24.3,4.3s33.7-6.8,33.7-26.1-9.8-21.9-20.7-28.9Z"/>
  </g>
  <path class="cls-2" d="M-1771.8,173.2c3.8-33.2,61.7-25.2,111.6-35.3,0,0-43.7-34.5-82.4-88.2-54.8-76.1-120-42.2-120-42.2,0,0,41.5,17.1,38.3,44.6-3.8,33.2-61.7,25.2-111.6,35.3,0,0,43.7,34.5,82.4,88.2,54.8,76.1,120,42.2,120,42.2,0,0-41.5-17.1-38.3-44.6Z"/>
  <path class="cls-5" d="M-1771.8-184.4c3.8-33.2,61.7-25.2,111.6-35.3,0,0-43.7-34.5-82.4-88.2-54.8-76.1-120-42.2-120-42.2,0,0,41.5,17.1,38.3,44.6-3.8,33.2-61.7,25.2-111.6,35.3,0,0,43.7,34.5,82.4,88.2,54.8,76.1,120,42.2,120,42.2,0,0-41.5-17.1-38.3-44.6Z"/>
  <image width="1153" height="1153" transform="translate(-2726.3 -1652.2)" xlink:href="Rising Tides Logo-1.png"/>
  <g>
    <text class="cls-6" transform="translate(0 319.3)"><tspan x="0" y="0">RISING TIDES</tspan></text>
    <path class="cls-1" d="M206.1,173.2c3.8-33.2,61.7-25.2,111.6-35.3,0,0-43.7-34.5-82.4-88.2C180.5-26.4,115.2,7.5,115.2,7.5c0,0,41.5,17.1,38.3,44.6-3.8,33.2-61.7,25.2-111.6,35.3,0,0,43.7,34.5,82.4,88.2,54.8,76.1,120,42.2,120,42.2,0,0-41.5-17.1-38.3-44.6Z"/>
  </g>
  <g>
    <path class="cls-3" d="M-683.3,64.3s-20.4-16.1-38.4-41.1c-25.6-35.5-56-19.7-56-19.7,0,0,19.4,8,17.9,20.8-1.8,15.5-28.8,11.8-52.1,16.5,0,0,20.4,16.1,38.4,41.1,25.6,35.5,56,19.7,56,19.7,0,0-19.4-8-17.9-20.8,1.8-15.5,28.8-11.8,52-16.5Z"/>
    <g>
      <path class="cls-2" d="M-1198,85.4l-6.7-11c-7.3-12-11.6-18.4-23.5-20,24.6.3,30.7-15.1,30.7-26.4,0-23.9-21.1-25.1-37.3-25.1s-12,.3-16.1.3-9.8-.3-9.8-.3l1.3,2.4c2.9,5.6,3.5,6.1,3.5,46.8s-.8,43-3.5,48.2l-1.3,2.4s3.5-.3,11.6-.3,11.5.3,11.5.3l-1.3-2.4c-2.9-5.6-3.5-7.8-3.5-43.3,0,0,1.1-.1,2.4-.1,7.5,0,9.1,2.8,17.7,16.2l10.1,15.5c6.6,10.2,10.1,14.5,19.7,14.5s8.7-1.1,8.7-1.1c-5.7-2.5-9.4-8.4-14.2-16.5ZM-1234.1,48.7c-5.3,0-8.1-.3-8.1-.3V11.6s3.2-.3,7-.3c12.7,0,22.8,1.8,22.8,18.3s-6,17.5-13.3,18.6c-2.4.3-6.7.6-8.4.6Z"/>
      <path class="cls-2" d="M-1152,2.9s-3.4.3-11.7.3-11.6-.3-11.6-.3l1.3,2.4c2.9,5.6,3.5,6.1,3.5,46.8s-.7,42.9-3.5,48.2l-1.3,2.4s3.5-.3,11.7-.3,11.6.3,11.6.3l-1.3-2.4c-2.9-5.6-3.5-6.1-3.5-46.8s.7-42.9,3.5-48.2l1.3-2.4Z"/>
      <path class="cls-2" d="M-1096.2,48.4l-9.9-6.4c-7.8-5.2-13.4-8.7-13.4-17,0-13,12.3-13.7,17.7-13.7,11,0,16.8,5.2,22.6,13.7,0,0-.3-4-.3-9.9s.3-8.9.3-8.9c0,0-8.1-4-22.3-4-22.8,0-31.4,11.5-31.4,24.6s11,21.9,20.5,28.1l12.6,8.1c6,4,10.8,8,10.8,16.6,0,13.4-11.9,14.8-20.2,14.8-12.4,0-18.3-5.9-24.2-14.2,0,0,.3,4.7.3,10.6s-.3,8.5-.3,8.5c0,0,8,4.3,24.3,4.3s33.7-6.8,33.7-26.1-9.8-21.9-20.7-28.9Z"/>
      <path class="cls-2" d="M-1034.5,2.9s-3.4.3-11.7.3-11.6-.3-11.6-.3l1.3,2.4c2.9,5.6,3.5,6.1,3.5,46.8s-.7,42.9-3.5,48.2l-1.3,2.4s3.5-.3,11.7-.3,11.6.3,11.6.3l-1.3-2.4c-2.9-5.6-3.5-6.1-3.5-46.8s.7-42.9,3.5-48.2l1.3-2.4Z"/>
      <path class="cls-2" d="M-950.4,2.9l1.3,2.4c2.9,5.6,3.5,6.1,3.5,46.8v38.8s-.8-4-4-9.9L-990.8,2.9s-3.5.3-10.6.3-11.9-.3-11.9-.3l1.3,2.4c2.9,5.6,3.5,6.1,3.5,46.8s-1,43.1-3.6,48.2l-1.3,2.4s2.9-.3,9.9-.3,10.3.3,10.3.3l-1.3-2.4c-2.9-5.6-3.5-6.1-3.5-46.8V14.5c.1,1,1.5,5.6,3.6,9.6l41.3,78.6s3.4-.4,9.4-.4,8.5.4,8.5.4v-49.3c.1-41.9.8-43.2,3.5-48.2l1.3-2.4s-3.1.3-10.1.3-10.1-.3-10.1-.3Z"/>
      <path class="cls-2" d="M-853.9,56.3l1.4,2.4c2.8,4.9,3.5,9.6,3.5,34.6,0,0-4.2,1-12.3,1-28.9,0-36.3-17.9-36.3-40.8,0-37.1,22.6-42.2,37.1-42.2s19.4,4.9,25.7,13.7c0,0-.4-4-.4-9.8s.4-9.1.4-9.1c0,0-7.4-4-25.7-4-33,0-52.2,18.7-52.2,51.9s5.9,49.4,51.2,49.4,26-4,26-4v-.8c0-32.8.8-35.1,3.5-39.9l1.3-2.4s-3.4.3-11.7.3-11.5-.3-11.5-.3Z"/>
      <path class="cls-2" d="M-608.3,3.1h-72.2s.1,2.2.1,7.3-.4,8.4-.4,8.5c.1-.3,1.4-1.5,5-3.8,3.4-2,8.8-3.4,15.4-3.4h9.1v40.4c0,41.9-.7,42.9-3.5,48.2l-1.3,2.4s3.5-.3,11.7-.3,11.6.3,11.6.3l-1.3-2.4c-2.9-5.6-3.5-6.1-3.5-46.8V11.7h9.1c6.6,0,12,1.4,15.4,3.4,3.9,2.4,4.9,3.6,5,3.8,0-.3-.4-2.9-.4-8.5s.1-7.3.1-7.3Z"/>
      <path class="cls-2" d="M-572.7,2.9s-3.4.3-11.7.3-11.6-.3-11.6-.3l1.3,2.4c2.9,5.6,3.5,6.1,3.5,46.8s-.7,42.9-3.5,48.2l-1.3,2.4s3.5-.3,11.7-.3,11.6.3,11.6.3l-1.3-2.4c-2.9-5.6-3.5-6.1-3.5-46.8s.7-42.9,3.5-48.2l1.3-2.4Z"/>
      <path class="cls-2" d="M-521,2.8c-6,0-13.4.4-19,.4s-11.5-.3-11.5-.3l1.3,2.4c2.9,5.6,3.5,6.1,3.5,46.8s-.7,43-3.5,48.2l-1.3,2.4s3.8-.3,11.5-.3,10.9.4,16.9.4c17.6,0,54.7-1,54.7-52.2S-506.8,2.8-521,2.8ZM-523.4,94c-4.5,0-9.2-.4-9.2-.4V12s4.2-.4,9.6-.4c19.5,0,39.4,4.7,39.4,40.6s-21.4,41.8-39.8,41.8Z"/>
      <path class="cls-2" d="M-414.2,93.5h-17v-36.4h15.1c6.6,0,12,.7,15.4,2.7,3.9,2.4,4.9,3.6,5,3.8,0-.3-.4-4.3-.4-10.8s.4-10.8.4-10.9c-.3.3-1.4,1.5-5,3.6-3.4,2-8.8,2.7-15.4,2.7h-15.1V12h18.4c6.6,0,12,1.1,15.4,3.1,3.9,2.4,4.9,3.6,5,3.8,0-.3-.4-2.9-.4-8.5s.1-7.3.1-7.3h-46.6c-7.5,0-10.6-.1-10.6-.1l1.3,2.4c2.9,5.6,3.5,6.1,3.5,46.8s-.7,42.9-3.5,48.2l-1.3,2.4s3.2-.1,10.8-.1h47.9l.3-4.2c.8-11.3,1.5-16.3,1.5-16.3-5.2,7.5-7.4,11.6-24.7,11.6Z"/>
      <path class="cls-2" d="M-336.3,48.4l-9.9-6.4c-7.8-5.2-13.4-8.7-13.4-17,0-13,12.3-13.7,17.7-13.7,11,0,16.8,5.2,22.6,13.7,0,0-.3-4-.3-9.9s.3-8.9.3-8.9c0,0-8.1-4-22.3-4-22.8,0-31.4,11.5-31.4,24.6s11,21.9,20.5,28.1l12.6,8.1c6,4,10.8,8,10.8,16.6,0,13.4-11.9,14.8-20.2,14.8-12.4,0-18.3-5.9-24.2-14.2,0,0,.3,4.7.3,10.6s-.3,8.5-.3,8.5c0,0,8,4.3,24.3,4.3s33.7-6.8,33.7-26.1-9.8-21.9-20.7-28.9Z"/>
    </g>
  </g>
  <path class="cls-4" d="M-131.6,173.2c3.8-33.2,61.7-25.2,111.6-35.3,0,0-43.7-34.5-82.4-88.2C-157.2-26.4-222.4,7.5-222.4,7.5c0,0,41.5,17.1,38.3,44.6-3.8,33.2-61.7,25.2-111.6,35.3,0,0,43.7,34.5,82.4,88.2,54.8,76.1,120,42.2,120,42.2,0,0-41.5-17.1-38.3-44.6Z"/>
</svg>